<!-- Generator: Adobe Illustrator 24.1.1, SVG Export Plug-In  -->
<svg version="1.1" xmlns="http://www.w3.org/2000/svg" xmlns:xlink="http://www.w3.org/1999/xlink" x="0px" y="0px"
	 width="254.859px" height="185.481px" viewBox="0 0 254.859 185.481" enable-background="new 0 0 254.859 185.481"
	 xml:space="preserve">
<defs>
</defs>
<path fill="#FFFFFF" stroke="#000000" stroke-miterlimit="10" d="M42.244,20.562c0,0,124.658-42.466,127.397,6.849
	s58.219,56.164-6.164,97.945s-86.301,78.767-112.329,48.63s-82.877-39.041-26.712-72.603s128.767-40.056,142.466-40.411
	c13.699-0.355-18.493,18.493,23.288,1.37s64.054-45.205,64.054-45.205s-6.52-10.021-16.109-13.572
	c-9.589-3.551-31.507-6.291-52.74,5.353s-62.329,31.507-76.027,34.247c-13.699,2.74-32.192-0.685-32.192-0.685L60.053,37
	L42.244,20.562z"/>
</svg>




















