<svg xmlns="http://www.w3.org/2000/svg" width="254.859" height="185.481" xml:space="preserve">
  <path fill="#FFF" stroke="#000" stroke-miterlimit="10" d="M42.244 20.562s124.658-42.466 127.397 6.849 58.219 56.164-6.164 97.945-86.301 78.767-112.329 48.63-82.877-39.041-26.712-72.603 128.767-40.056 142.466-40.411c13.699-.355-18.493 18.493 23.288 1.37s64.054-45.205 64.054-45.205-6.52-10.021-16.109-13.572c-9.589-3.551-31.507-6.291-52.74 5.353s-62.329 31.507-76.027 34.247c-13.699 2.74-32.192-.685-32.192-.685L60.053 37 42.244 20.562z"/>

    <path d="M 0.49942558801873194 0.5001032311725658 V 184.98029659461153" stroke="#ff0000" stroke-width="1.766"/>
    <path d="M254.24400000000006 0.5001032311725658 V 184.98029659461153" stroke="#ff0000" stroke-width="1.766"/>
    <path d="M0.49942558801873194 0.5001032311725658 H 254.24400000000006" stroke="#ff0000" stroke-width="1.766"/>
    <path d="M0.49942558801873194 184.98029659461153 H 254.24400000000006" stroke="#ff0000" stroke-width="1.766"/>

</svg>
